# xmcd
#
# Track frame offsets:
#	150
#	19901
#	38480
#	57911
#	76108
#	94911
#	112497
#	128348
#	145652
#	163130
#	179668
#	196161
#
# Disc length: 2854 seconds
#
# Revision: 0
# Processed by: cddbd v1.5.2PL0 Copyright (c) Steve Scherf et al.
# Submitted via: audiograbber 1.83.01
#
DISCID=9d0b240c
DTITLE=Nick P: - Herzerfüllt
DYEAR=2009
DGENRE=Schlager
TTITLE0=Gloria
TTITLE1=Engel fliegen weit
TTITLE2=Wo bist du
TTITLE3=Engel und Teufel
TTITLE4=Liebe ist ...
TTITLE5=Irgendwann
TTITLE6=Es war des erste mal
TTITLE7=Ich hab schon getraümt von dir
TTITLE8=Das mit mir
TTITLE9=Leb deinen Traum
TTITLE10=Der Mann im Mond
TTITLE11=Gloria II - Lebenslust and Leidenschaft
EXTD=CD 2
EXTT0=(RMX 07)
EXTT1=
EXTT2=
EXTT3=
EXTT4=
EXTT5=
EXTT6=
EXTT7=
EXTT8=
EXTT9=
EXTT10=(Radio Mix)
EXTT11=
PLAYORDER=
